<svg width="207" height="66" viewBox="0 0 207 66" fill="none" xmlns="http://www.w3.org/2000/svg">
<path d="M0 6.37392e-06H33L49.5 3.18696e-06L58.0633 7.93671L66 16.5V33V66H0V6.37392e-06Z" fill="#8B8B95"/>
<path d="M32.48 33.4V39.36C32.48 42.9867 31.6667 45.7333 30.04 47.6C28.4133 49.4667 26.1467 50.4 23.24 50.4C20.3333 50.4 18.0667 49.4667 16.44 47.6C14.84 45.7333 14.04 42.9867 14.04 39.36V33.4C14.04 29.8 14.8533 27.0667 16.48 25.2C18.1067 23.3333 20.36 22.4 23.24 22.4C26.1467 22.4 28.4133 23.3333 30.04 25.2C31.6667 27.0667 32.48 29.8 32.48 33.4ZM28.96 33.4C28.96 30.6267 28.4533 28.6267 27.44 27.4C26.4533 26.1733 25.0533 25.56 23.24 25.56C21.4533 25.56 20.0533 26.1733 19.04 27.4C18.0533 28.6267 17.56 30.6267 17.56 33.4V39.36C17.56 42.1067 18.0533 44.12 19.04 45.4C20.0533 46.6533 21.4533 47.28 23.24 47.28C25.0533 47.28 26.4533 46.6533 27.44 45.4C28.4533 44.12 28.96 42.1067 28.96 39.36V33.4ZM36.2913 26.56L42.7713 22.8H45.9313V50H42.5313V26.48L37.8113 29.2L36.2913 26.56Z" fill="white"/>
<path d="M132.66 16.452C132.852 16.548 132.972 16.716 133.02 16.956C133.092 17.172 133.068 17.376 132.948 17.568C132.924 17.592 132.732 17.88 132.372 18.432C132.012 18.984 131.496 19.596 130.824 20.268L138.024 20.232H138.06C138.276 20.232 138.468 20.316 138.636 20.484C138.78 20.652 138.852 20.856 138.852 21.096L138.348 32.04C138.324 32.256 138.24 32.448 138.096 32.616C137.952 32.76 137.772 32.832 137.556 32.832L127.08 33.084H127.044C126.828 33.084 126.636 33.012 126.468 32.868C126.324 32.724 126.252 32.544 126.252 32.328L125.748 21.132C125.748 20.892 125.82 20.688 125.964 20.52C126.132 20.352 126.324 20.268 126.54 20.268H128.232C128.928 19.812 129.516 19.32 129.996 18.792C130.5 18.24 130.884 17.772 131.148 17.388C131.412 16.98 131.544 16.776 131.544 16.776C131.664 16.584 131.832 16.452 132.048 16.38C132.264 16.308 132.468 16.332 132.66 16.452ZM118.008 19.8V24.552H122.616C122.832 24.552 123.012 24.636 123.156 24.804C123.324 24.948 123.408 25.14 123.408 25.38C123.408 25.596 123.324 25.788 123.156 25.956C123.012 26.1 122.832 26.172 122.616 26.172H118.008V31.248L122.904 30.42C123.12 30.372 123.324 30.42 123.516 30.564C123.708 30.684 123.816 30.852 123.84 31.068C123.888 31.284 123.84 31.488 123.696 31.68C123.576 31.848 123.408 31.956 123.192 32.004L112.428 33.876H112.284C111.828 33.876 111.564 33.648 111.492 33.192C111.468 32.976 111.516 32.784 111.636 32.616C111.756 32.424 111.924 32.304 112.14 32.256L116.388 31.536V26.172H112.176C111.936 26.172 111.732 26.1 111.564 25.956C111.42 25.788 111.348 25.596 111.348 25.38C111.348 25.14 111.42 24.948 111.564 24.804C111.732 24.636 111.936 24.552 112.176 24.552H116.388V19.8H111.888C111.672 19.8 111.48 19.728 111.312 19.584C111.168 19.416 111.096 19.212 111.096 18.972C111.096 18.756 111.168 18.576 111.312 18.432C111.48 18.264 111.672 18.18 111.888 18.18H122.652C122.868 18.18 123.048 18.264 123.192 18.432C123.36 18.576 123.444 18.756 123.444 18.972C123.444 19.212 123.36 19.416 123.192 19.584C123.048 19.728 122.868 19.8 122.652 19.8H118.008ZM137.196 21.852L127.404 21.888L127.584 25.704L137.016 25.74L137.196 21.852ZM136.764 31.212L136.944 27.36L127.656 27.324L127.836 31.464L136.764 31.212ZM111.42 36.432C111.42 36.216 111.504 36.036 111.672 35.892C111.84 35.724 112.032 35.64 112.248 35.64L140.076 35.604C140.316 35.604 140.508 35.688 140.652 35.856C140.82 36 140.904 36.192 140.904 36.432C140.904 36.648 140.82 36.84 140.652 37.008C140.508 37.152 140.316 37.224 140.076 37.224L122.688 37.26C122.592 37.572 122.46 37.992 122.292 38.52C122.124 39.048 121.884 39.624 121.572 40.248H134.352C134.616 40.248 134.82 40.332 134.964 40.5C135.156 40.692 135.228 40.908 135.18 41.148L134.352 47.124C134.328 47.316 134.232 47.484 134.064 47.628C133.92 47.772 133.752 47.844 133.56 47.844L121.212 47.916C121.02 47.916 120.84 47.844 120.672 47.7C120.528 47.556 120.444 47.376 120.42 47.16L119.988 42.804C119.316 43.692 118.488 44.532 117.504 45.324C116.52 46.14 115.32 46.788 113.904 47.268C113.856 47.292 113.772 47.304 113.652 47.304C113.268 47.304 113.016 47.124 112.896 46.764C112.824 46.572 112.836 46.368 112.932 46.152C113.028 45.96 113.184 45.828 113.4 45.756C114.672 45.324 115.752 44.736 116.64 43.992C117.528 43.248 118.26 42.456 118.836 41.616C119.436 40.752 119.904 39.936 120.24 39.168C120.6 38.4 120.852 37.764 120.996 37.26H112.248C112.032 37.26 111.84 37.188 111.672 37.044C111.504 36.876 111.42 36.672 111.42 36.432ZM133.452 41.868H121.536L121.968 46.26L132.84 46.224L133.452 41.868Z" fill="#3B4662"/>
<path d="M65 64H207" stroke="#8B8B95" stroke-width="4"/>
<path d="M189 62.5L207 55V62.5H189Z" fill="#8B8B95"/>
</svg>
