<svg width="287" height="66" viewBox="0 0 287 66" fill="none" xmlns="http://www.w3.org/2000/svg">
<path d="M0 6.37392e-06H33L49.5 3.18696e-06L58.0633 7.93671L66 16.5V33V66H0V6.37392e-06Z" fill="#8B8B95"/>
<path d="M31.48 34.4V40.36C31.48 43.9867 30.6667 46.7333 29.04 48.6C27.4133 50.4667 25.1467 51.4 22.24 51.4C19.3333 51.4 17.0667 50.4667 15.44 48.6C13.84 46.7333 13.04 43.9867 13.04 40.36V34.4C13.04 30.8 13.8533 28.0667 15.48 26.2C17.1067 24.3333 19.36 23.4 22.24 23.4C25.1467 23.4 27.4133 24.3333 29.04 26.2C30.6667 28.0667 31.48 30.8 31.48 34.4ZM27.96 34.4C27.96 31.6267 27.4533 29.6267 26.44 28.4C25.4533 27.1733 24.0533 26.56 22.24 26.56C20.4533 26.56 19.0533 27.1733 18.04 28.4C17.0533 29.6267 16.56 31.6267 16.56 34.4V40.36C16.56 43.1067 17.0533 45.12 18.04 46.4C19.0533 47.6533 20.4533 48.28 22.24 48.28C24.0533 48.28 25.4533 47.6533 26.44 46.4C27.4533 45.12 27.96 43.1067 27.96 40.36V34.4ZM51.9313 51H36.4113V48.36C36.4113 46.36 36.6513 44.68 37.1313 43.32C37.6379 41.96 38.3046 40.84 39.1313 39.96C39.9846 39.0533 40.9313 38.3333 41.9713 37.8L44.5713 36.48C45.7979 35.84 46.7713 35.1733 47.4913 34.48C48.2379 33.7867 48.6113 32.7867 48.6113 31.48V30.8C48.6113 29.3067 48.1846 28.2267 47.3313 27.56C46.5046 26.8933 45.2779 26.56 43.6513 26.56C42.7446 26.56 41.7846 26.68 40.7713 26.92C39.7579 27.1333 38.6379 27.5067 37.4113 28.04L36.2913 25.12C37.6246 24.5067 38.9046 24.0667 40.1313 23.8C41.3846 23.5333 42.5846 23.4 43.7313 23.4C46.6913 23.4 48.8113 24.0933 50.0913 25.48C51.3713 26.84 52.0113 28.6133 52.0113 30.8V31.48C52.0113 32.92 51.7313 34.12 51.1713 35.08C50.6379 36.04 49.9179 36.8533 49.0113 37.52C48.1313 38.16 47.1846 38.7333 46.1713 39.24L43.5713 40.6C42.3179 41.2667 41.3846 42.1867 40.7713 43.36C40.1846 44.5333 39.8646 46.0267 39.8112 47.84H51.9313V51Z" fill="white"/>
<path d="M118.184 32.176C117.779 30.8107 117.16 29.84 116.328 29.264C115.517 28.6667 114.493 28.304 113.256 28.176C112.061 28.048 111.005 28.3573 110.088 29.104C109.213 29.808 108.691 30.7573 108.52 31.952C108.371 33.104 108.563 34.128 109.096 35.024C109.629 35.92 110.792 36.6773 112.584 37.296C114.419 37.8933 115.944 38.736 117.16 39.824C118.419 40.912 118.963 42.416 118.792 44.336C118.621 46.2773 117.896 47.632 116.616 48.4C115.357 49.1893 113.896 49.52 112.232 49.392C110.589 49.3067 109.213 48.7093 108.104 47.6C106.995 46.4907 106.365 45.0613 106.216 43.312C106.173 42.544 106.397 42.1813 106.888 42.224C107.336 42.2453 107.592 42.544 107.656 43.12C107.805 44.464 108.275 45.5733 109.064 46.448C109.811 47.3013 110.835 47.792 112.136 47.92C113.437 48.048 114.621 47.8133 115.688 47.216C116.733 46.64 117.277 45.6053 117.32 44.112C117.341 42.6827 116.883 41.5413 115.944 40.688C115.005 39.856 113.725 39.1947 112.104 38.704C110.504 38.256 109.213 37.4453 108.232 36.272C107.741 35.696 107.4 35.056 107.208 34.352C107.016 33.6267 106.963 32.8373 107.048 31.984C107.24 30.3413 107.933 29.0187 109.128 28.016C109.725 27.5253 110.355 27.184 111.016 26.992C111.699 26.7787 112.403 26.6933 113.128 26.736C114.579 26.864 115.859 27.2693 116.968 27.952C118.077 28.592 118.899 29.744 119.432 31.408C119.603 32.048 119.549 32.4427 119.272 32.592C119.037 32.7413 118.675 32.6027 118.184 32.176ZM124.648 35.696C124.691 41.0293 124.883 44.2613 125.224 45.392C125.565 46.544 126.045 47.3547 126.664 47.824C127.24 48.272 127.965 48.496 128.84 48.496C129.693 48.496 130.451 48.2507 131.112 47.76C131.795 47.2693 132.328 46.352 132.712 45.008C133.139 43.664 133.331 40.656 133.288 35.984C133.373 34.9173 133.853 34.6293 134.728 35.12C134.941 37.0613 135.005 41.84 134.92 49.456C134.877 50.0747 134.632 50.416 134.184 50.48C133.757 50.5013 133.576 50.16 133.64 49.456C133.64 48.6453 133.608 47.7493 133.544 46.768C133.309 47.344 133.032 47.8347 132.712 48.24C132.413 48.6453 132.083 48.976 131.72 49.232C130.973 49.7227 130.045 50 128.936 50.064C127.848 50.1067 126.803 49.8507 125.8 49.296C124.84 48.7627 124.115 47.6427 123.624 45.936C123.389 45.0827 123.229 43.8133 123.144 42.128C123.08 40.4213 123.069 38.2773 123.112 35.696C123.197 35.0133 123.485 34.672 123.976 34.672C124.424 34.672 124.648 35.0133 124.648 35.696ZM139.816 35.024C139.88 34.3627 140.072 34.0213 140.392 34C140.733 34 140.947 34.32 141.032 34.96V39.376C141.352 38.0107 141.875 36.9333 142.6 36.144C143.325 35.3547 144.36 34.9173 145.704 34.832C147.112 34.7253 148.232 35.2267 149.064 36.336C149.491 36.8693 149.843 37.5413 150.12 38.352C150.397 39.1627 150.589 40.112 150.696 41.2C150.803 42.2667 150.845 43.4827 150.824 44.848C150.803 46.2133 150.717 47.7173 150.568 49.36C150.397 49.9147 150.099 50.1493 149.672 50.064C149.267 49.936 149.075 49.616 149.096 49.104C149.245 47.5253 149.331 46.1067 149.352 44.848C149.373 43.568 149.341 42.4373 149.256 41.456C149.064 39.5573 148.637 38.192 147.976 37.36C147.293 36.592 146.483 36.2507 145.544 36.336C144.605 36.4213 143.763 37.0507 143.016 38.224C142.675 38.8 142.387 39.44 142.152 40.144C141.917 40.848 141.757 41.616 141.672 42.448C141.608 43.28 141.555 44.0693 141.512 44.816C141.469 45.5413 141.459 46.2133 141.48 46.832C141.501 47.4507 141.491 48.0053 141.448 48.496C141.427 48.9867 141.395 49.4027 141.352 49.744C140.648 50.2773 140.179 50.1387 139.944 49.328L139.816 35.024ZM184.924 39.024C184.305 37.8293 183.302 37.0187 181.916 36.592C180.55 36.208 179.196 36.3573 177.852 37.04C176.486 37.7013 175.644 38.9813 175.324 40.88C174.982 42.736 175.292 44.4427 176.252 46C177.19 47.5147 178.598 48.24 180.476 48.176C182.268 48.1547 183.633 47.5787 184.572 46.448C184.977 46.1707 185.329 46.1173 185.628 46.288C185.884 46.48 185.841 46.8853 185.5 47.504C184.348 48.848 183.057 49.616 181.628 49.808C180.198 50.0213 178.972 49.8827 177.948 49.392C177.436 49.1573 176.966 48.88 176.54 48.56C176.134 48.2187 175.761 47.8453 175.42 47.44C174.694 46.6507 174.204 45.5733 173.948 44.208C173.649 42.8853 173.713 41.3707 174.14 39.664C174.524 37.9147 175.516 36.592 177.116 35.696C178.694 34.7787 180.39 34.576 182.204 35.088C183.974 35.6427 185.286 36.6987 186.14 38.256C186.268 38.96 186.225 39.3867 186.012 39.536C185.756 39.6853 185.393 39.5147 184.924 39.024ZM196.892 34.672C198.129 34.6293 199.238 35.0133 200.22 35.824C201.244 36.6133 201.98 37.7653 202.428 39.28C202.897 40.7733 202.94 42.3947 202.556 44.144C202.172 45.936 201.34 47.376 200.06 48.464C198.758 49.5733 197.276 50.032 195.612 49.84C193.884 49.648 192.529 49.04 191.548 48.016C190.588 47.056 189.958 45.744 189.66 44.08C189.361 42.5013 189.489 40.88 190.044 39.216C190.556 37.5733 191.42 36.368 192.636 35.6C193.83 34.8107 195.249 34.5013 196.892 34.672ZM197.308 35.92C195.644 35.8133 194.332 36.0907 193.372 36.752C192.348 37.4133 191.644 38.416 191.26 39.76C190.812 41.1253 190.694 42.4587 190.908 43.76C191.014 44.4213 191.185 45.0187 191.42 45.552C191.654 46.0853 191.974 46.5653 192.38 46.992C193.126 47.824 194.204 48.304 195.612 48.432C196.977 48.56 198.225 48.1653 199.356 47.248C200.422 46.352 201.094 45.1787 201.372 43.728C201.649 42.2773 201.585 40.912 201.18 39.632C200.774 38.352 200.22 37.4667 199.516 36.976C199.196 36.7413 198.854 36.528 198.492 36.336C198.129 36.144 197.734 36.0053 197.308 35.92ZM211.868 48.944C211.74 49.6053 211.473 49.936 211.068 49.936C210.62 49.936 210.342 49.6053 210.236 48.944L210.204 27.952C210.246 27.12 210.502 26.736 210.972 26.8C211.462 26.864 211.75 27.248 211.836 27.952L211.868 48.944ZM228.892 34.672C230.129 34.6293 231.238 35.0133 232.22 35.824C233.244 36.6133 233.98 37.7653 234.428 39.28C234.897 40.7733 234.94 42.3947 234.556 44.144C234.172 45.936 233.34 47.376 232.06 48.464C230.758 49.5733 229.276 50.032 227.612 49.84C225.884 49.648 224.529 49.04 223.548 48.016C222.588 47.056 221.958 45.744 221.66 44.08C221.361 42.5013 221.489 40.88 222.044 39.216C222.556 37.5733 223.42 36.368 224.636 35.6C225.83 34.8107 227.249 34.5013 228.892 34.672ZM229.308 35.92C227.644 35.8133 226.332 36.0907 225.372 36.752C224.348 37.4133 223.644 38.416 223.26 39.76C222.812 41.1253 222.694 42.4587 222.908 43.76C223.014 44.4213 223.185 45.0187 223.42 45.552C223.654 46.0853 223.974 46.5653 224.38 46.992C225.126 47.824 226.204 48.304 227.612 48.432C228.977 48.56 230.225 48.1653 231.356 47.248C232.422 46.352 233.094 45.1787 233.372 43.728C233.649 42.2773 233.585 40.912 233.18 39.632C232.774 38.352 232.22 37.4667 231.516 36.976C231.196 36.7413 230.854 36.528 230.492 36.336C230.129 36.144 229.734 36.0053 229.308 35.92ZM241.084 40.88C242.62 37.5733 245.276 35.9733 249.052 36.08C249.564 36.1013 249.83 36.3147 249.852 36.72C249.852 37.104 249.585 37.3387 249.052 37.424C245.446 37.5307 242.972 39.2587 241.628 42.608C241.457 43.0773 241.318 43.8347 241.212 44.88C241.105 45.904 241.041 47.2053 241.02 48.784C241.02 49.4453 240.828 49.7867 240.444 49.808C240.017 49.8507 239.74 49.5733 239.612 48.976L239.484 35.568C239.42 34.8213 239.601 34.4053 240.028 34.32C240.476 34.2133 240.785 34.5227 240.956 35.248L241.084 40.88Z" fill="#3B4662"/>
<path d="M65 64H287" stroke="#8B8B95" stroke-width="4"/>
<path d="M269 62L287 54.5V62.134L269 62Z" fill="#8B8B95"/>
</svg>
