<svg width="406" height="66" viewBox="0 0 406 66" fill="none" xmlns="http://www.w3.org/2000/svg">
<path d="M0 6.37392e-06H33L49.5 3.18696e-06L58.0633 7.93671L66 16.5V33V66H0V6.37392e-06Z" fill="#8B8B95"/>
<path d="M31.48 34.4V40.36C31.48 43.9867 30.6667 46.7333 29.04 48.6C27.4133 50.4667 25.1467 51.4 22.24 51.4C19.3333 51.4 17.0667 50.4667 15.44 48.6C13.84 46.7333 13.04 43.9867 13.04 40.36V34.4C13.04 30.8 13.8533 28.0667 15.48 26.2C17.1067 24.3333 19.36 23.4 22.24 23.4C25.1467 23.4 27.4133 24.3333 29.04 26.2C30.6667 28.0667 31.48 30.8 31.48 34.4ZM27.96 34.4C27.96 31.6267 27.4533 29.6267 26.44 28.4C25.4533 27.1733 24.0533 26.56 22.24 26.56C20.4533 26.56 19.0533 27.1733 18.04 28.4C17.0533 29.6267 16.56 31.6267 16.56 34.4V40.36C16.56 43.1067 17.0533 45.12 18.04 46.4C19.0533 47.6533 20.4533 48.28 22.24 48.28C24.0533 48.28 25.4533 47.6533 26.44 46.4C27.4533 45.12 27.96 43.1067 27.96 40.36V34.4ZM51.8113 43.92C51.8113 46.1067 51.1313 47.9067 49.7713 49.32C48.4113 50.7067 46.2246 51.4 43.2113 51.4C42.0113 51.4 40.7579 51.2667 39.4513 51C38.1713 50.7067 36.8379 50.2533 35.4513 49.64L36.4913 46.76C37.8246 47.2933 39.0113 47.68 40.0513 47.92C41.1179 48.16 42.1446 48.28 43.1313 48.28C44.7846 48.28 46.0646 47.9333 46.9713 47.24C47.9046 46.5467 48.3713 45.4133 48.3713 43.84V43.2C48.3713 41.8667 47.9846 40.8 47.2113 40C46.4379 39.2 45.2513 38.8 43.6513 38.8H39.6513V35.76H43.6513C45.1713 35.76 46.2913 35.3867 47.0113 34.64C47.7313 33.8667 48.0913 32.8267 48.0913 31.52V30.96C48.0913 29.3867 47.6646 28.2667 46.8113 27.6C45.9579 26.9067 44.7713 26.56 43.2513 26.56C42.3179 26.56 41.3579 26.68 40.3713 26.92C39.3846 27.1333 38.2646 27.5067 37.0113 28.04L35.8913 25.12C37.2246 24.5067 38.5046 24.0667 39.7313 23.8C40.9846 23.5333 42.1846 23.4 43.3313 23.4C46.2113 23.4 48.3046 24.0933 49.6113 25.48C50.9179 26.8667 51.5713 28.6667 51.5713 30.88V31.44C51.5713 32.7733 51.2513 33.9467 50.6113 34.96C49.9713 35.9467 49.1046 36.72 48.0113 37.28C49.1846 37.8133 50.1046 38.6 50.7713 39.64C51.4646 40.6533 51.8113 41.8667 51.8113 43.28V43.92Z" fill="white"/>
<path d="M123.952 38.384C124.571 38.4907 124.869 38.736 124.848 39.12C124.805 39.5467 124.475 39.8027 123.856 39.888L115.152 39.92C115.109 40.7733 115.024 41.5733 114.896 42.32C114.768 43.0453 114.619 43.728 114.448 44.368C114.043 45.648 113.349 46.8213 112.368 47.888C111.899 48.4213 111.344 48.9013 110.704 49.328C110.064 49.7333 109.36 50.1067 108.592 50.448C108.08 50.6613 107.728 50.5653 107.536 50.16C107.301 49.712 107.429 49.3707 107.92 49.136C109.307 48.56 110.405 47.8347 111.216 46.96C112.048 46.0853 112.656 45.0827 113.04 43.952C113.211 43.3547 113.349 42.7253 113.456 42.064C113.563 41.4027 113.637 40.6987 113.68 39.952L103.888 39.984C103.312 39.92 103.035 39.664 103.056 39.216C103.077 38.7893 103.408 38.5653 104.048 38.544L113.776 38.48L113.808 30.032C112.144 30.1173 110.501 30.2133 108.88 30.32C107.28 30.4053 105.712 30.4907 104.176 30.576C103.451 30.6827 103.056 30.4693 102.992 29.936C102.928 29.4453 103.291 29.168 104.08 29.104C112.869 28.656 119.536 28.144 124.08 27.568C124.656 27.504 124.976 27.6853 125.04 28.112C125.104 28.56 124.848 28.8587 124.272 29.008C122.907 29.1573 121.477 29.3173 119.984 29.488C118.491 29.6373 116.923 29.776 115.28 29.904L115.248 38.448L123.952 38.384ZM153.776 36.752C154.331 36.8587 154.597 37.0933 154.576 37.456C154.533 37.8827 154.288 38.096 153.84 38.096L145.68 38.064V48.4L153.392 48.432C153.861 48.5387 154.107 48.7627 154.128 49.104C154.171 49.4667 153.925 49.6907 153.392 49.776L137.072 49.808C136.624 49.7013 136.379 49.4773 136.336 49.136C136.293 48.7733 136.539 48.5493 137.072 48.464L144.4 48.368V38.128H136.464C136.059 38.0427 135.856 37.808 135.856 37.424C135.856 37.0827 136.059 36.8693 136.464 36.784L153.776 36.752ZM177.008 42.384C177.051 42.9173 176.88 43.2053 176.496 43.248C176.133 43.2693 175.888 43.0027 175.76 42.448L175.376 36.08C175.333 35.5467 175.515 35.3013 175.92 35.344C176.261 35.3867 176.496 35.6107 176.624 36.016L177.008 42.384ZM171.632 43.024C171.653 43.536 171.493 43.8347 171.152 43.92C170.789 43.984 170.533 43.7493 170.384 43.216L169.328 36.528C169.328 35.952 169.488 35.6533 169.808 35.632C170.149 35.6107 170.416 35.8133 170.608 36.24L171.632 43.024ZM185.552 37.776C185.488 38.48 185.413 39.1307 185.328 39.728C185.243 40.304 185.147 40.8373 185.04 41.328C184.933 41.7973 184.784 42.288 184.592 42.8C184.421 43.312 184.219 43.8347 183.984 44.368C183.451 45.4773 182.811 46.416 182.064 47.184C181.296 48.016 180.421 48.7093 179.44 49.264C178.437 49.7973 177.211 50.192 175.76 50.448C175.141 50.4907 174.811 50.3093 174.768 49.904C174.747 49.5627 175.056 49.3173 175.696 49.168C176.336 49.0613 176.923 48.912 177.456 48.72C177.989 48.528 178.459 48.3147 178.864 48.08C179.291 47.8453 179.685 47.5893 180.048 47.312C180.432 47.0133 180.795 46.6933 181.136 46.352C181.477 45.9893 181.787 45.5947 182.064 45.168C182.341 44.7413 182.587 44.2933 182.8 43.824C183.013 43.3333 183.205 42.864 183.376 42.416C183.547 41.9467 183.685 41.488 183.792 41.04C183.899 40.592 183.995 40.0907 184.08 39.536C184.165 38.96 184.24 38.3307 184.304 37.648C184.432 37.072 184.688 36.8267 185.072 36.912C185.435 36.9973 185.595 37.2853 185.552 37.776ZM210.32 26.352C210.341 27.3333 210.32 28.3253 210.256 29.328C210.192 30.3307 210.107 31.3333 210 32.336C217.232 32.272 221.04 32.336 221.424 32.528C221.808 32.7627 221.893 34.0107 221.68 36.272C221.573 37.4453 221.371 38.6827 221.072 39.984C220.795 41.264 220.432 42.6187 219.984 44.048C219.515 45.4987 218.907 46.8213 218.16 48.016C217.413 49.2107 216.539 50.2773 215.536 51.216C215.045 51.856 214.469 52.1013 213.808 51.952L210.736 49.904C210.416 49.328 210.395 48.912 210.672 48.656C210.928 48.4213 211.323 48.464 211.856 48.784L214.16 50.512C216.059 48.8267 217.541 46.4587 218.608 43.408C219.611 40.4 220.165 37.1893 220.272 33.776L209.872 33.712C209.509 35.696 209.093 37.4667 208.624 39.024C208.155 40.56 207.643 41.8933 207.088 43.024C205.979 45.264 204.709 47.0667 203.28 48.432C202.683 48.9013 202.277 48.9547 202.064 48.592C201.851 48.2507 201.947 47.8347 202.352 47.344C203.632 46.064 204.795 44.4 205.84 42.352C206.352 41.328 206.821 40.1013 207.248 38.672C207.675 37.2427 208.059 35.6107 208.4 33.776H198.864C198.309 33.6053 198.075 33.3493 198.16 33.008C198.224 32.6027 198.512 32.3893 199.024 32.368H208.56C208.816 30.384 208.88 28.3893 208.752 26.384C208.901 25.8293 209.179 25.5307 209.584 25.488C209.989 25.488 210.235 25.776 210.32 26.352ZM254.448 37.808C254.96 37.8933 255.195 38.1173 255.152 38.48C255.131 38.7787 254.896 38.9813 254.448 39.088L229.648 39.152C229.072 39.1307 228.805 38.9493 228.848 38.608C228.869 38.2667 229.072 38.032 229.456 37.904L254.448 37.808ZM270.608 29.264C269.819 31.248 268.837 32.9973 267.664 34.512C266.512 36.0267 265.179 37.328 263.664 38.416C263.109 38.8 262.736 38.864 262.544 38.608C262.309 38.3093 262.352 37.8933 262.672 37.36C265.936 35.056 268.208 31.8987 269.488 27.888C269.659 27.824 270.288 27.7813 271.376 27.76C272.464 27.7173 274.011 27.6853 276.016 27.664C278.043 27.6427 279.675 27.6533 280.912 27.696C282.149 27.7387 283.003 27.8027 283.472 27.888C283.877 28.2293 283.995 29.36 283.824 31.28C283.739 32.24 283.579 33.2 283.344 34.16C283.109 35.0987 282.8 36.0693 282.416 37.072C280.048 43.728 275.408 48.784 268.496 52.24C267.984 52.4533 267.621 52.4213 267.408 52.144C267.173 51.8453 267.248 51.44 267.632 50.928C273.648 48.048 277.936 43.5893 280.496 37.552C281.712 35.2267 282.341 32.432 282.384 29.168L270.608 29.264ZM305.008 42.384C305.051 42.9173 304.88 43.2053 304.496 43.248C304.133 43.2693 303.888 43.0027 303.76 42.448L303.376 36.08C303.333 35.5467 303.515 35.3013 303.92 35.344C304.261 35.3867 304.496 35.6107 304.624 36.016L305.008 42.384ZM299.632 43.024C299.653 43.536 299.493 43.8347 299.152 43.92C298.789 43.984 298.533 43.7493 298.384 43.216L297.328 36.528C297.328 35.952 297.488 35.6533 297.808 35.632C298.149 35.6107 298.416 35.8133 298.608 36.24L299.632 43.024ZM313.552 37.776C313.488 38.48 313.413 39.1307 313.328 39.728C313.243 40.304 313.147 40.8373 313.04 41.328C312.933 41.7973 312.784 42.288 312.592 42.8C312.421 43.312 312.219 43.8347 311.984 44.368C311.451 45.4773 310.811 46.416 310.064 47.184C309.296 48.016 308.421 48.7093 307.44 49.264C306.437 49.7973 305.211 50.192 303.76 50.448C303.141 50.4907 302.811 50.3093 302.768 49.904C302.747 49.5627 303.056 49.3173 303.696 49.168C304.336 49.0613 304.923 48.912 305.456 48.72C305.989 48.528 306.459 48.3147 306.864 48.08C307.291 47.8453 307.685 47.5893 308.048 47.312C308.432 47.0133 308.795 46.6933 309.136 46.352C309.477 45.9893 309.787 45.5947 310.064 45.168C310.341 44.7413 310.587 44.2933 310.8 43.824C311.013 43.3333 311.205 42.864 311.376 42.416C311.547 41.9467 311.685 41.488 311.792 41.04C311.899 40.592 311.995 40.0907 312.08 39.536C312.165 38.96 312.24 38.3307 312.304 37.648C312.432 37.072 312.688 36.8267 313.072 36.912C313.435 36.9973 313.595 37.2853 313.552 37.776ZM326.736 43.056C326.181 43.0133 325.904 42.7787 325.904 42.352C325.904 41.9253 326.16 41.648 326.672 41.52L337.424 40.752L336.72 33.36L325.936 34.096C325.403 34.1173 325.115 33.904 325.072 33.456C325.029 33.008 325.264 32.7093 325.776 32.56L336.432 31.952L335.824 25.616C335.824 25.104 336.027 24.8373 336.432 24.816C336.837 24.7947 337.125 25.04 337.296 25.552L337.872 31.76L348.784 31.088C349.253 31.152 349.509 31.3973 349.552 31.824C349.595 32.2293 349.371 32.5173 348.88 32.688L338.192 33.296L338.736 40.624L350.224 39.984C350.736 40.112 350.981 40.3787 350.96 40.784C350.939 41.168 350.693 41.4133 350.224 41.52L339.152 42.16L340.432 51.248C340.411 51.8453 340.208 52.1547 339.824 52.176C339.419 52.1973 339.141 51.952 338.992 51.44L337.648 42.256L326.736 43.056ZM382.448 37.808C382.96 37.8933 383.195 38.1173 383.152 38.48C383.131 38.7787 382.896 38.9813 382.448 39.088L357.648 39.152C357.072 39.1307 356.805 38.9493 356.848 38.608C356.869 38.2667 357.072 38.032 357.456 37.904L382.448 37.808Z" fill="#3B4662"/>
<path d="M64 64H406" stroke="#8B8B95" stroke-width="4"/>
<path d="M389 61.9999L406 54.634V61.9999H389Z" fill="#8B8B95"/>
</svg>
